<svg width="62" height="50" viewBox="0 0 62 50" fill="none" xmlns="http://www.w3.org/2000/svg">
<path fill-rule="evenodd" clip-rule="evenodd" d="M59.4537 0H2.05366C1.50997 0 0.988543 0.215982 0.604094 0.600431C0.219644 0.984881 0.00366211 1.50631 0.00366211 2.05V47.15C0.00366211 47.6937 0.219644 48.2151 0.604094 48.5996C0.988543 48.984 1.50997 49.2 2.05366 49.2H59.4537C59.9974 49.2 60.5188 48.984 60.9032 48.5996C61.2877 48.2151 61.5037 47.6937 61.5037 47.15V2.05C61.5037 1.50631 61.2877 0.984881 60.9032 0.600431C60.5188 0.215982 59.9974 0 59.4537 0ZM4.10366 45.1V4.1H57.4037V45.1H4.10366Z" fill="#241F26"/>
<path fill-rule="evenodd" clip-rule="evenodd" d="M60.782 3.608L31.8975 28.208C31.5257 28.525 31.0528 28.6988 30.5642 28.6981C30.0756 28.6973 29.6033 28.5221 29.2325 28.2039L0.712883 3.6039C0.395406 3.33072 0.169224 2.96684 0.0647721 2.56124C-0.0396795 2.15564 -0.0173882 1.72778 0.128646 1.33523C0.27468 0.942679 0.537449 0.604279 0.881595 0.365563C1.22574 0.126847 1.63475 -0.000728665 2.05358 3.13072e-06H59.4536C59.8723 0.000807475 60.2807 0.129818 60.624 0.369684C60.9672 0.60955 61.2287 0.948766 61.3734 1.34171C61.5181 1.73465 61.5389 2.16247 61.4332 2.56764C61.3275 2.9728 61.1002 3.33586 60.782 3.608ZM53.8858 4.1H7.56808L30.5773 23.9481L53.8858 4.1Z" fill="#241F26"/>
</svg>
