<svg width="63" height="63" viewBox="0 0 63 63" fill="none" xmlns="http://www.w3.org/2000/svg">
<path d="M60.0875 43.0156L44.9559 36.2346C44.2703 35.9409 43.5223 35.8228 42.7795 35.891C42.0368 35.9592 41.3227 36.2117 40.7021 36.6254C40.6392 36.6658 40.5792 36.7108 40.5228 36.7599L32.6143 43.4865C32.5322 43.5313 32.4409 43.5563 32.3475 43.5596C32.2541 43.5629 32.1612 43.5445 32.0761 43.5057C26.9928 41.0521 21.7268 35.8182 19.2636 30.8053C19.2226 30.7216 19.2013 30.6295 19.2013 30.5363C19.2013 30.443 19.2226 30.351 19.2636 30.2672L26.0126 22.2594C26.061 22.2001 26.106 22.1381 26.1471 22.0736C26.5552 21.4506 26.8017 20.7358 26.8643 19.9937C26.9269 19.2516 26.8037 18.5056 26.5059 17.8231L19.7729 2.71713C19.3906 1.82541 18.7293 1.08175 17.8884 0.597771C17.0475 0.113787 16.0723 -0.084414 15.1092 0.0329153C10.9234 0.583201 7.08123 2.63878 4.30062 5.81552C1.52002 8.99226 -0.0087371 13.0728 3.75642e-05 17.2946C3.75642e-05 42.375 20.4039 62.7789 45.4844 62.7789C49.706 62.787 53.7862 61.258 56.9628 58.4775C60.1393 55.6971 62.1951 51.8553 62.7461 47.6698C62.8631 46.7112 62.6676 45.7404 62.1886 44.9018C61.7096 44.0632 60.9727 43.4017 60.0875 43.0156ZM45.4844 58.9352C22.5244 58.9352 3.84379 40.2546 3.84379 17.2946C3.83308 14.0079 5.01935 10.8298 7.18095 8.35403C9.34255 5.87823 12.3316 4.27413 15.5896 3.84143H15.6633C15.7924 3.84384 15.9177 3.88519 16.0229 3.96007C16.1281 4.03495 16.2082 4.13986 16.2527 4.26104L23.0113 19.351C23.0498 19.4349 23.0698 19.5261 23.0698 19.6184C23.0698 19.7107 23.0498 19.802 23.0113 19.8859L16.2495 27.9129C16.199 27.9702 16.153 28.0313 16.1118 28.0955C15.6886 28.7414 15.4395 29.4857 15.3884 30.2562C15.3374 31.0266 15.4861 31.7973 15.8203 32.4934C18.6614 38.3103 24.5232 44.1271 30.4041 46.9683C31.1043 47.3006 31.8787 47.4458 32.6517 47.3897C33.4247 47.3335 34.17 47.078 34.8148 46.648C34.8757 46.6064 34.9365 46.5615 34.9942 46.5135L42.8995 39.7869C42.9776 39.7449 43.0638 39.7204 43.1522 39.7148C43.2407 39.7093 43.3293 39.723 43.412 39.7549L58.5468 46.5359C58.6704 46.5885 58.7743 46.6787 58.8439 46.7937C58.9134 46.9086 58.9451 47.0426 58.9343 47.1765C58.5039 50.436 56.9013 53.4273 54.4261 55.5913C51.9508 57.7554 48.7722 58.944 45.4844 58.9352Z" fill="#241F26"/>
</svg>
